<?xml version="1.0" encoding="us-ascii" standalone="no"?><svg xmlns="http://www.w3.org/2000/svg" xmlns:xlink="http://www.w3.org/1999/xlink" contentStyleType="text/css" height="620px" preserveAspectRatio="none" style="width:1613px;height:620px;background:#FFFFFF;" version="1.1" viewBox="0 0 1613 620" width="1613px" zoomAndPan="magnify"><defs/><g><!--class User--><g id="elem_User"><rect codeLine="2" fill="#F1F1F1" height="162.4075" id="User" rx="2.5" ry="2.5" style="stroke:#181818;stroke-width:0.5;" width="236" x="114.5" y="7"/><ellipse cx="212.75" cy="23" fill="#ADD1B2" rx="11" ry="11" style="stroke:#181818;stroke-width:1.0;"/><path d="M212.2188,29.9219 Q210.4688,29.9219 209.3281,29.1875 Q208.2031,28.4375 207.6406,27.0938 Q207.0938,25.7344 207.0938,23.9375 Q207.0938,21.9063 207.75,20.4531 Q208.4063,19 209.6875,18.2188 Q210.9688,17.4375 212.8438,17.4375 Q213.7344,17.4375 214.4063,17.625 Q215.0781,17.7969 215.7656,18.1406 L214.9531,20.1563 Q214.3281,19.8438 213.7813,19.7188 Q213.25,19.5938 212.7656,19.5938 Q211.5938,19.5938 210.8906,20.125 Q210.1875,20.6563 209.8906,21.6094 Q209.5938,22.5625 209.5938,23.8281 Q209.5938,25.8438 210.3125,26.8125 Q211.0313,27.7656 212.625,27.7656 Q213.2188,27.7656 213.8438,27.6094 Q214.4688,27.4531 215.2969,27.0781 L215.2969,29.2969 Q214.5625,29.6094 213.7656,29.7656 Q212.9844,29.9219 212.2188,29.9219 Z " fill="#000000"/><text fill="#000000" font-family="sans-serif" font-size="14" lengthAdjust="spacing" textLength="31" x="233.25" y="28.432">User</text><line style="stroke:#181818;stroke-width:0.5;" x1="115.5" x2="349.5" y1="39" y2="39"/><ellipse cx="125.5" cy="54.034" fill="none" rx="3" ry="3" style="stroke:#038048;stroke-width:1.0;"/><text fill="#000000" font-family="sans-serif" font-size="14" lengthAdjust="spacing" textLength="147" x="134.5" y="57.9659">balance: DecimalField</text><ellipse cx="125.5" cy="73.1019" fill="none" rx="3" ry="3" style="stroke:#038048;stroke-width:1.0;"/><text fill="#000000" font-family="sans-serif" font-size="14" lengthAdjust="spacing" textLength="130" x="134.5" y="77.0339">score: DecimalField</text><line style="stroke:#181818;stroke-width:0.5;" x1="115.5" x2="349.5" y1="85.1358" y2="85.1358"/><ellipse cx="125.5" cy="100.1698" fill="#84BE84" rx="3" ry="3" style="stroke:#038048;stroke-width:1.0;"/><text fill="#000000" font-family="sans-serif" font-size="14" lengthAdjust="spacing" textLength="189" x="134.5" y="104.1018">CPF: CharField (primary_key)</text><ellipse cx="125.5" cy="119.2377" fill="#84BE84" rx="3" ry="3" style="stroke:#038048;stroke-width:1.0;"/><text fill="#000000" font-family="sans-serif" font-size="14" lengthAdjust="spacing" textLength="129" x="134.5" y="123.1697">add_balance(value)</text><ellipse cx="125.5" cy="138.3056" fill="#84BE84" rx="3" ry="3" style="stroke:#038048;stroke-width:1.0;"/><text fill="#000000" font-family="sans-serif" font-size="14" lengthAdjust="spacing" textLength="164" x="134.5" y="142.2376">decrease_balance(value)</text><ellipse cx="125.5" cy="157.3735" fill="#84BE84" rx="3" ry="3" style="stroke:#038048;stroke-width:1.0;"/><text fill="#000000" font-family="sans-serif" font-size="14" lengthAdjust="spacing" textLength="210" x="134.5" y="161.3055">update_score(transfer_amount)</text></g><!--class Transaction--><g id="elem_Transaction"><rect codeLine="11" fill="#F1F1F1" height="105.2038" id="Transaction" rx="2.5" ry="2.5" style="stroke:#181818;stroke-width:0.5;" width="221" x="7" y="286"/><ellipse cx="73.75" cy="302" fill="#ADD1B2" rx="11" ry="11" style="stroke:#181818;stroke-width:1.0;"/><path d="M73.2188,308.9219 Q71.4688,308.9219 70.3281,308.1875 Q69.2031,307.4375 68.6406,306.0938 Q68.0938,304.7344 68.0938,302.9375 Q68.0938,300.9063 68.75,299.4531 Q69.4063,298 70.6875,297.2188 Q71.9688,296.4375 73.8438,296.4375 Q74.7344,296.4375 75.4063,296.625 Q76.0781,296.7969 76.7656,297.1406 L75.9531,299.1563 Q75.3281,298.8438 74.7813,298.7188 Q74.25,298.5938 73.7656,298.5938 Q72.5938,298.5938 71.8906,299.125 Q71.1875,299.6563 70.8906,300.6094 Q70.5938,301.5625 70.5938,302.8281 Q70.5938,304.8438 71.3125,305.8125 Q72.0313,306.7656 73.625,306.7656 Q74.2188,306.7656 74.8438,306.6094 Q75.4688,306.4531 76.2969,306.0781 L76.2969,308.2969 Q75.5625,308.6094 74.7656,308.7656 Q73.9844,308.9219 73.2188,308.9219 Z " fill="#000000"/><text fill="#000000" font-family="sans-serif" font-size="14" lengthAdjust="spacing" textLength="79" x="94.25" y="307.432">Transaction</text><line style="stroke:#181818;stroke-width:0.5;" x1="8" x2="227" y1="318" y2="318"/><ellipse cx="18" cy="333.034" fill="none" rx="3" ry="3" style="stroke:#038048;stroke-width:1.0;"/><text fill="#000000" font-family="sans-serif" font-size="14" lengthAdjust="spacing" textLength="130" x="27" y="336.9659">value: DecimalField</text><ellipse cx="18" cy="352.1019" fill="none" rx="3" ry="3" style="stroke:#038048;stroke-width:1.0;"/><text fill="#000000" font-family="sans-serif" font-size="14" lengthAdjust="spacing" textLength="195" x="27" y="356.0339">creation_data: DateTimeField</text><line style="stroke:#181818;stroke-width:0.5;" x1="8" x2="227" y1="364.1358" y2="364.1358"/><ellipse cx="18" cy="379.1698" fill="#84BE84" rx="3" ry="3" style="stroke:#038048;stroke-width:1.0;"/><text fill="#000000" font-family="sans-serif" font-size="14" lengthAdjust="spacing" textLength="152" x="27" y="383.1018">user: ForeignKey(User)</text></g><!--class TransactionOption--><g id="elem_TransactionOption"><rect codeLine="17" fill="#F1F1F1" height="67.0679" id="TransactionOption" rx="2.5" ry="2.5" style="stroke:#181818;stroke-width:0.5;" width="157" x="853" y="54.5"/><ellipse cx="868" cy="70.5" fill="#ADD1B2" rx="11" ry="11" style="stroke:#181818;stroke-width:1.0;"/><path d="M867.4688,77.4219 Q865.7188,77.4219 864.5781,76.6875 Q863.4531,75.9375 862.8906,74.5938 Q862.3438,73.2344 862.3438,71.4375 Q862.3438,69.4063 863,67.9531 Q863.6563,66.5 864.9375,65.7188 Q866.2188,64.9375 868.0938,64.9375 Q868.9844,64.9375 869.6563,65.125 Q870.3281,65.2969 871.0156,65.6406 L870.2031,67.6563 Q869.5781,67.3438 869.0313,67.2188 Q868.5,67.0938 868.0156,67.0938 Q866.8438,67.0938 866.1406,67.625 Q865.4375,68.1563 865.1406,69.1094 Q864.8438,70.0625 864.8438,71.3281 Q864.8438,73.3438 865.5625,74.3125 Q866.2813,75.2656 867.875,75.2656 Q868.4688,75.2656 869.0938,75.1094 Q869.7188,74.9531 870.5469,74.5781 L870.5469,76.7969 Q869.8125,77.1094 869.0156,77.2656 Q868.2344,77.4219 867.4688,77.4219 Z " fill="#000000"/><text fill="#000000" font-family="sans-serif" font-size="14" lengthAdjust="spacing" textLength="125" x="882" y="75.932">TransactionOption</text><line style="stroke:#181818;stroke-width:0.5;" x1="854" x2="1009" y1="86.5" y2="86.5"/><ellipse cx="864" cy="101.534" fill="none" rx="3" ry="3" style="stroke:#038048;stroke-width:1.0;"/><text fill="#000000" font-family="sans-serif" font-size="14" lengthAdjust="spacing" textLength="130" x="873" y="105.4659">value: DecimalField</text><line style="stroke:#181818;stroke-width:0.5;" x1="854" x2="1009" y1="113.5679" y2="113.5679"/></g><!--class TransactionExecuted--><g id="elem_TransactionExecuted"><rect codeLine="21" fill="#F1F1F1" height="105.2038" id="TransactionExecuted" rx="2.5" ry="2.5" style="stroke:#181818;stroke-width:0.5;" width="285" x="166" y="508"/><ellipse cx="234.25" cy="524" fill="#ADD1B2" rx="11" ry="11" style="stroke:#181818;stroke-width:1.0;"/><path d="M233.7188,530.9219 Q231.9688,530.9219 230.8281,530.1875 Q229.7031,529.4375 229.1406,528.0938 Q228.5938,526.7344 228.5938,524.9375 Q228.5938,522.9063 229.25,521.4531 Q229.9063,520 231.1875,519.2188 Q232.4688,518.4375 234.3438,518.4375 Q235.2344,518.4375 235.9063,518.625 Q236.5781,518.7969 237.2656,519.1406 L236.4531,521.1563 Q235.8281,520.8438 235.2813,520.7188 Q234.75,520.5938 234.2656,520.5938 Q233.0938,520.5938 232.3906,521.125 Q231.6875,521.6563 231.3906,522.6094 Q231.0938,523.5625 231.0938,524.8281 Q231.0938,526.8438 231.8125,527.8125 Q232.5313,528.7656 234.125,528.7656 Q234.7188,528.7656 235.3438,528.6094 Q235.9688,528.4531 236.7969,528.0781 L236.7969,530.2969 Q236.0625,530.6094 235.2656,530.7656 Q234.4844,530.9219 233.7188,530.9219 Z " fill="#000000"/><text fill="#000000" font-family="sans-serif" font-size="14" lengthAdjust="spacing" textLength="140" x="254.75" y="529.432">TransactionExecuted</text><line style="stroke:#181818;stroke-width:0.5;" x1="167" x2="450" y1="540" y2="540"/><ellipse cx="177" cy="555.034" fill="none" rx="3" ry="3" style="stroke:#038048;stroke-width:1.0;"/><text fill="#000000" font-family="sans-serif" font-size="14" lengthAdjust="spacing" textLength="197" x="186" y="558.9659">quantity: PositiveIntegerField</text><line style="stroke:#181818;stroke-width:0.5;" x1="167" x2="450" y1="567.0679" y2="567.0679"/><ellipse cx="177" cy="582.1019" fill="#84BE84" rx="3" ry="3" style="stroke:#038048;stroke-width:1.0;"/><text fill="#000000" font-family="sans-serif" font-size="14" lengthAdjust="spacing" textLength="246" x="186" y="586.0339">transaction: ForeignKey(Transaction)</text><ellipse cx="177" cy="601.1698" fill="#84BE84" rx="3" ry="3" style="stroke:#038048;stroke-width:1.0;"/><text fill="#000000" font-family="sans-serif" font-size="14" lengthAdjust="spacing" textLength="259" x="186" y="605.1018">option: ForeignKey(TransactionOption)</text></g><!--class InvestmentOption--><g id="elem_InvestmentOption"><rect codeLine="27" fill="#F1F1F1" height="181.4754" id="InvestmentOption" rx="2.5" ry="2.5" style="stroke:#181818;stroke-width:0.5;" width="248" x="665.5" y="248"/><ellipse cx="724.25" cy="264" fill="#ADD1B2" rx="11" ry="11" style="stroke:#181818;stroke-width:1.0;"/><path d="M723.7188,270.9219 Q721.9688,270.9219 720.8281,270.1875 Q719.7031,269.4375 719.1406,268.0938 Q718.5938,266.7344 718.5938,264.9375 Q718.5938,262.9063 719.25,261.4531 Q719.9063,260 721.1875,259.2188 Q722.4688,258.4375 724.3438,258.4375 Q725.2344,258.4375 725.9063,258.625 Q726.5781,258.7969 727.2656,259.1406 L726.4531,261.1563 Q725.8281,260.8438 725.2813,260.7188 Q724.75,260.5938 724.2656,260.5938 Q723.0938,260.5938 722.3906,261.125 Q721.6875,261.6563 721.3906,262.6094 Q721.0938,263.5625 721.0938,264.8281 Q721.0938,266.8438 721.8125,267.8125 Q722.5313,268.7656 724.125,268.7656 Q724.7188,268.7656 725.3438,268.6094 Q725.9688,268.4531 726.7969,268.0781 L726.7969,270.2969 Q726.0625,270.6094 725.2656,270.7656 Q724.4844,270.9219 723.7188,270.9219 Z " fill="#000000"/><text fill="#000000" font-family="sans-serif" font-size="14" lengthAdjust="spacing" textLength="122" x="744.75" y="269.432">InvestmentOption</text><line style="stroke:#181818;stroke-width:0.5;" x1="666.5" x2="912.5" y1="280" y2="280"/><ellipse cx="676.5" cy="295.034" fill="none" rx="3" ry="3" style="stroke:#038048;stroke-width:1.0;"/><text fill="#000000" font-family="sans-serif" font-size="14" lengthAdjust="spacing" textLength="110" x="685.5" y="298.9659">name: CharField</text><ellipse cx="676.5" cy="314.1019" fill="none" rx="3" ry="3" style="stroke:#038048;stroke-width:1.0;"/><text fill="#000000" font-family="sans-serif" font-size="14" lengthAdjust="spacing" textLength="197" x="685.5" y="318.0339">quantity: PositiveIntegerField</text><ellipse cx="676.5" cy="333.1698" fill="none" rx="3" ry="3" style="stroke:#038048;stroke-width:1.0;"/><text fill="#000000" font-family="sans-serif" font-size="14" lengthAdjust="spacing" textLength="222" x="685.5" y="337.1018">month_profitability: DecimalField</text><ellipse cx="676.5" cy="352.2377" fill="none" rx="3" ry="3" style="stroke:#038048;stroke-width:1.0;"/><text fill="#000000" font-family="sans-serif" font-size="14" lengthAdjust="spacing" textLength="118" x="685.5" y="356.1697">risk: DecimalField</text><ellipse cx="676.5" cy="371.3056" fill="none" rx="3" ry="3" style="stroke:#038048;stroke-width:1.0;"/><text fill="#000000" font-family="sans-serif" font-size="14" lengthAdjust="spacing" textLength="126" x="685.5" y="375.2376">liquidity: DateField</text><ellipse cx="676.5" cy="390.3735" fill="none" rx="3" ry="3" style="stroke:#038048;stroke-width:1.0;"/><text fill="#000000" font-family="sans-serif" font-size="14" lengthAdjust="spacing" textLength="108" x="685.5" y="394.3055">image: URLField</text><line style="stroke:#181818;stroke-width:0.5;" x1="666.5" x2="912.5" y1="402.4075" y2="402.4075"/><ellipse cx="676.5" cy="417.4415" fill="#84BE84" rx="3" ry="3" style="stroke:#038048;stroke-width:1.0;"/><text fill="#000000" font-family="sans-serif" font-size="14" lengthAdjust="spacing" textLength="167" x="685.5" y="421.3734">decrease_quantity(value)</text></g><!--class LoanOption--><g id="elem_LoanOption"><rect codeLine="37" fill="#F1F1F1" height="105.2038" id="LoanOption" rx="2.5" ry="2.5" style="stroke:#181818;stroke-width:0.5;" width="250" x="948.5" y="286"/><ellipse cx="1030.25" cy="302" fill="#ADD1B2" rx="11" ry="11" style="stroke:#181818;stroke-width:1.0;"/><path d="M1029.7188,308.9219 Q1027.9688,308.9219 1026.8281,308.1875 Q1025.7031,307.4375 1025.1406,306.0938 Q1024.5938,304.7344 1024.5938,302.9375 Q1024.5938,300.9063 1025.25,299.4531 Q1025.9063,298 1027.1875,297.2188 Q1028.4688,296.4375 1030.3438,296.4375 Q1031.2344,296.4375 1031.9063,296.625 Q1032.5781,296.7969 1033.2656,297.1406 L1032.4531,299.1563 Q1031.8281,298.8438 1031.2813,298.7188 Q1030.75,298.5938 1030.2656,298.5938 Q1029.0938,298.5938 1028.3906,299.125 Q1027.6875,299.6563 1027.3906,300.6094 Q1027.0938,301.5625 1027.0938,302.8281 Q1027.0938,304.8438 1027.8125,305.8125 Q1028.5313,306.7656 1030.125,306.7656 Q1030.7188,306.7656 1031.3438,306.6094 Q1031.9688,306.4531 1032.7969,306.0781 L1032.7969,308.2969 Q1032.0625,308.6094 1031.2656,308.7656 Q1030.4844,308.9219 1029.7188,308.9219 Z " fill="#000000"/><text fill="#000000" font-family="sans-serif" font-size="14" lengthAdjust="spacing" textLength="78" x="1050.75" y="307.432">LoanOption</text><line style="stroke:#181818;stroke-width:0.5;" x1="949.5" x2="1197.5" y1="318" y2="318"/><ellipse cx="959.5" cy="333.034" fill="none" rx="3" ry="3" style="stroke:#038048;stroke-width:1.0;"/><text fill="#000000" font-family="sans-serif" font-size="14" lengthAdjust="spacing" textLength="224" x="968.5" y="336.9659">installments: PositiveIntegerField</text><ellipse cx="959.5" cy="352.1019" fill="none" rx="3" ry="3" style="stroke:#038048;stroke-width:1.0;"/><text fill="#000000" font-family="sans-serif" font-size="14" lengthAdjust="spacing" textLength="183" x="968.5" y="356.0339">interest_ratio: DecimalField</text><ellipse cx="959.5" cy="371.1698" fill="none" rx="3" ry="3" style="stroke:#038048;stroke-width:1.0;"/><text fill="#000000" font-family="sans-serif" font-size="14" lengthAdjust="spacing" textLength="162" x="968.5" y="375.1018">min_score: DecimalField</text><line style="stroke:#181818;stroke-width:0.5;" x1="949.5" x2="1197.5" y1="383.2038" y2="383.2038"/></g><!--class InsuranceOption--><g id="elem_InsuranceOption"><rect codeLine="43" fill="#F1F1F1" height="86.1358" id="InsuranceOption" rx="2.5" ry="2.5" style="stroke:#181818;stroke-width:0.5;" width="188" x="1233.5" y="295.5"/><ellipse cx="1267.4" cy="311.5" fill="#ADD1B2" rx="11" ry="11" style="stroke:#181818;stroke-width:1.0;"/><path d="M1266.8688,318.4219 Q1265.1188,318.4219 1263.9781,317.6875 Q1262.8531,316.9375 1262.2906,315.5938 Q1261.7438,314.2344 1261.7438,312.4375 Q1261.7438,310.4063 1262.4,308.9531 Q1263.0563,307.5 1264.3375,306.7188 Q1265.6188,305.9375 1267.4938,305.9375 Q1268.3844,305.9375 1269.0563,306.125 Q1269.7281,306.2969 1270.4156,306.6406 L1269.6031,308.6563 Q1268.9781,308.3438 1268.4313,308.2188 Q1267.9,308.0938 1267.4156,308.0938 Q1266.2438,308.0938 1265.5406,308.625 Q1264.8375,309.1563 1264.5406,310.1094 Q1264.2438,311.0625 1264.2438,312.3281 Q1264.2438,314.3438 1264.9625,315.3125 Q1265.6813,316.2656 1267.275,316.2656 Q1267.8688,316.2656 1268.4938,316.1094 Q1269.1188,315.9531 1269.9469,315.5781 L1269.9469,317.7969 Q1269.2125,318.1094 1268.4156,318.2656 Q1267.6344,318.4219 1266.8688,318.4219 Z " fill="#000000"/><text fill="#000000" font-family="sans-serif" font-size="14" lengthAdjust="spacing" textLength="114" x="1285.6" y="316.932">InsuranceOption</text><line style="stroke:#181818;stroke-width:0.5;" x1="1234.5" x2="1420.5" y1="327.5" y2="327.5"/><ellipse cx="1244.5" cy="342.534" fill="none" rx="3" ry="3" style="stroke:#038048;stroke-width:1.0;"/><text fill="#000000" font-family="sans-serif" font-size="14" lengthAdjust="spacing" textLength="130" x="1253.5" y="346.4659">category: CharField</text><ellipse cx="1244.5" cy="361.6019" fill="none" rx="3" ry="3" style="stroke:#038048;stroke-width:1.0;"/><text fill="#000000" font-family="sans-serif" font-size="14" lengthAdjust="spacing" textLength="162" x="1253.5" y="365.5339">min_score: DecimalField</text><line style="stroke:#181818;stroke-width:0.5;" x1="1234.5" x2="1420.5" y1="373.6358" y2="373.6358"/></g><!--class DepositOption--><g id="elem_DepositOption"><rect codeLine="48" fill="#F1F1F1" height="67.0679" id="DepositOption" rx="2.5" ry="2.5" style="stroke:#181818;stroke-width:0.5;" width="150" x="1456.5" y="305"/><ellipse cx="1480.95" cy="321" fill="#ADD1B2" rx="11" ry="11" style="stroke:#181818;stroke-width:1.0;"/><path d="M1480.4188,327.9219 Q1478.6688,327.9219 1477.5281,327.1875 Q1476.4031,326.4375 1475.8406,325.0938 Q1475.2938,323.7344 1475.2938,321.9375 Q1475.2938,319.9063 1475.95,318.4531 Q1476.6063,317 1477.8875,316.2188 Q1479.1688,315.4375 1481.0438,315.4375 Q1481.9344,315.4375 1482.6063,315.625 Q1483.2781,315.7969 1483.9656,316.1406 L1483.1531,318.1563 Q1482.5281,317.8438 1481.9813,317.7188 Q1481.45,317.5938 1480.9656,317.5938 Q1479.7938,317.5938 1479.0906,318.125 Q1478.3875,318.6563 1478.0906,319.6094 Q1477.7938,320.5625 1477.7938,321.8281 Q1477.7938,323.8438 1478.5125,324.8125 Q1479.2313,325.7656 1480.825,325.7656 Q1481.4188,325.7656 1482.0438,325.6094 Q1482.6688,325.4531 1483.4969,325.0781 L1483.4969,327.2969 Q1482.7625,327.6094 1481.9656,327.7656 Q1481.1844,327.9219 1480.4188,327.9219 Z " fill="#000000"/><text fill="#000000" font-family="sans-serif" font-size="14" lengthAdjust="spacing" textLength="97" x="1497.05" y="326.432">DepositOption</text><line style="stroke:#181818;stroke-width:0.5;" x1="1457.5" x2="1605.5" y1="337" y2="337"/><ellipse cx="1467.5" cy="352.034" fill="none" rx="3" ry="3" style="stroke:#038048;stroke-width:1.0;"/><text fill="#000000" font-family="sans-serif" font-size="14" lengthAdjust="spacing" textLength="124" x="1476.5" y="355.9659">method: CharField</text><line style="stroke:#181818;stroke-width:0.5;" x1="1457.5" x2="1605.5" y1="364.0679" y2="364.0679"/></g><!--class TransferOption--><g id="elem_TransferOption"><rect codeLine="52" fill="#F1F1F1" height="67.0679" id="TransferOption" rx="2.5" ry="2.5" style="stroke:#181818;stroke-width:0.5;" width="166" x="263.5" y="305"/><ellipse cx="292.45" cy="321" fill="#ADD1B2" rx="11" ry="11" style="stroke:#181818;stroke-width:1.0;"/><path d="M291.9188,327.9219 Q290.1688,327.9219 289.0281,327.1875 Q287.9031,326.4375 287.3406,325.0938 Q286.7938,323.7344 286.7938,321.9375 Q286.7938,319.9063 287.45,318.4531 Q288.1063,317 289.3875,316.2188 Q290.6688,315.4375 292.5438,315.4375 Q293.4344,315.4375 294.1063,315.625 Q294.7781,315.7969 295.4656,316.1406 L294.6531,318.1563 Q294.0281,317.8438 293.4813,317.7188 Q292.95,317.5938 292.4656,317.5938 Q291.2938,317.5938 290.5906,318.125 Q289.8875,318.6563 289.5906,319.6094 Q289.2938,320.5625 289.2938,321.8281 Q289.2938,323.8438 290.0125,324.8125 Q290.7313,325.7656 292.325,325.7656 Q292.9188,325.7656 293.5438,325.6094 Q294.1688,325.4531 294.9969,325.0781 L294.9969,327.2969 Q294.2625,327.6094 293.4656,327.7656 Q292.6844,327.9219 291.9188,327.9219 Z " fill="#000000"/><text fill="#000000" font-family="sans-serif" font-size="14" lengthAdjust="spacing" textLength="103" x="309.55" y="326.432">TransferOption</text><line style="stroke:#181818;stroke-width:0.5;" x1="264.5" x2="428.5" y1="337" y2="337"/><line style="stroke:#181818;stroke-width:0.5;" x1="264.5" x2="428.5" y1="345" y2="345"/><ellipse cx="274.5" cy="360.034" fill="#84BE84" rx="3" ry="3" style="stroke:#038048;stroke-width:1.0;"/><text fill="#000000" font-family="sans-serif" font-size="14" lengthAdjust="spacing" textLength="140" x="283.5" y="363.9659">destiny: ForeignKey()</text></g><!--link User to Transaction--><g id="link_User_Transaction"><path codeLine="57" d="M195.32,169.34 C177.6,207.62 156.93,252.3 141.35,285.97 " fill="none" id="User-Transaction" style="stroke:#181818;stroke-width:1.0;"/><text fill="#000000" font-family="sans-serif" font-size="13" lengthAdjust="spacing" textLength="74" x="179.5" y="213.897">transactions</text><text fill="#000000" font-family="sans-serif" font-size="13" lengthAdjust="spacing" textLength="7" x="184.6969" y="191.2517">1</text><text fill="#000000" font-family="sans-serif" font-size="13" lengthAdjust="spacing" textLength="10" x="134.0008" y="274.32">N</text></g><!--link Transaction to TransactionExecuted--><g id="link_Transaction_TransactionExecuted"><path codeLine="58" d="M162.28,391.08 C192.82,426.26 233.12,472.67 263.67,507.86 " fill="none" id="Transaction-TransactionExecuted" style="stroke:#181818;stroke-width:1.0;"/><text fill="#000000" font-family="sans-serif" font-size="13" lengthAdjust="spacing" textLength="101" x="237.5" y="473.897">executed_option</text><text fill="#000000" font-family="sans-serif" font-size="13" lengthAdjust="spacing" textLength="7" x="160.827" y="413.2184">1</text><text fill="#000000" font-family="sans-serif" font-size="13" lengthAdjust="spacing" textLength="10" x="246.6627" y="496.1945">N</text></g><!--reverse link TransactionOption to InvestmentOption--><g id="link_TransactionOption_InvestmentOption"><path codeLine="59" d="M903.8606,137.369 C885.5606,169.399 865.79,204 840.68,247.93 " fill="none" id="TransactionOption-backto-InvestmentOption" style="stroke:#181818;stroke-width:1.0;"/><polygon fill="none" points="912.79,121.74,898.6509,134.3925,909.0702,140.3455,912.79,121.74" style="stroke:#181818;stroke-width:1.0;"/></g><!--reverse link TransactionOption to LoanOption--><g id="link_TransactionOption_LoanOption"><path codeLine="60" d="M959.1393,137.3691 C983.0093,179.1491 1015.66,236.27 1043.86,285.63 " fill="none" id="TransactionOption-backto-LoanOption" style="stroke:#181818;stroke-width:1.0;"/><polygon fill="none" points="950.21,121.74,953.9296,140.3455,964.349,134.3926,950.21,121.74" style="stroke:#181818;stroke-width:1.0;"/></g><!--reverse link TransactionOption to InsuranceOption--><g id="link_TransactionOption_InsuranceOption"><path codeLine="61" d="M1013.0418,129.7137 C1072.0418,159.9237 1144.3,199.26 1216.5,248 C1237.74,262.33 1259.94,279.71 1278.87,295.32 " fill="none" id="TransactionOption-backto-InsuranceOption" style="stroke:#181818;stroke-width:1.0;"/><polygon fill="none" points="997.02,121.51,1010.3073,135.0543,1015.7764,124.3731,997.02,121.51" style="stroke:#181818;stroke-width:1.0;"/></g><!--reverse link TransactionOption to DepositOption--><g id="link_TransactionOption_DepositOption"><path codeLine="62" d="M1027.8622,105.1246 C1131.8922,124.6146 1300.58,165.2 1439.5,248 C1464.38,262.83 1487.72,285.68 1504.66,304.58 " fill="none" id="TransactionOption-backto-DepositOption" style="stroke:#181818;stroke-width:1.0;"/><polygon fill="none" points="1010.17,101.81,1026.7573,111.022,1028.9671,99.2272,1010.17,101.81" style="stroke:#181818;stroke-width:1.0;"/></g><!--reverse link TransactionOption to TransferOption--><g id="link_TransactionOption_TransferOption"><path codeLine="63" d="M835.0687,95.5815 C739.4687,104.5515 593.82,128.15 473.5,199 C428.52,225.49 390.16,272.97 367.71,304.85 " fill="none" id="TransactionOption-backto-TransferOption" style="stroke:#181818;stroke-width:1.0;"/><polygon fill="none" points="852.99,93.9,834.5082,89.6078,835.6292,101.5553,852.99,93.9" style="stroke:#181818;stroke-width:1.0;"/></g><!--link TransactionOption to TransactionExecuted--><g id="link_TransactionOption_TransactionExecuted"><path codeLine="64" d="M852.88,99.69 C760.98,116.13 609.75,155.96 517.5,248 C456.44,308.92 495.7,357.47 447.5,429 C427.8,458.23 400.43,485.73 375.19,507.87 " fill="none" id="TransactionOption-TransactionExecuted" style="stroke:#181818;stroke-width:1.0;"/><text fill="#000000" font-family="sans-serif" font-size="13" lengthAdjust="spacing" textLength="129" x="518.5" y="343.897">executed_transaction</text><text fill="#000000" font-family="sans-serif" font-size="13" lengthAdjust="spacing" textLength="7" x="838.0529" y="96.9215">1</text><text fill="#000000" font-family="sans-serif" font-size="13" lengthAdjust="spacing" textLength="10" x="373.8652" y="496.2059">N</text></g><!--link User to TransferOption--><g id="link_User_TransferOption"><path codeLine="65" d="M269.36,169.34 C290.43,215.28 315.73,270.42 331.46,304.72 " fill="none" id="User-TransferOption" style="stroke:#181818;stroke-width:1.0;"/><text fill="#000000" font-family="sans-serif" font-size="13" lengthAdjust="spacing" textLength="44" x="290.5" y="213.897">destiny</text><text fill="#000000" font-family="sans-serif" font-size="13" lengthAdjust="spacing" textLength="7" x="265.3311" y="191.2517">1</text><text fill="#000000" font-family="sans-serif" font-size="13" lengthAdjust="spacing" textLength="10" x="317.3267" y="292.9626">N</text></g><!--SRC=[bLJBRjim4BphAmXTwY38eLUXDoS6WWHj42HdWY4tzY8KgP2KKQ7jltT5oJRfq7du971dXhkpGqijl6UF7XpxKp7wdI_lLWrRReHR8MZ55ft3LhY1ly1mDY6UX1P6GiCkGL9DH-1KyjAwOa4enMVUOYjq3xEM0kb0U2WM-qw903oABe8JnZ-3uwArlGbdrR-gah7xXx4YP41hTaD4bL8VusqZa9Eo803fFs0B2Q8dBngseYjnRMvWM8pcb6_xrNrqPubrzHja7q3jUE5GokvDABCVjdiFD7KpGrzxOGA6eM5trcF0BLoR06jmHtrTcotuq889-J16j934u5EY4TDQ4pQyS_OPWtX27U5lz-3GlvJEDRxsg2OIxIQf471DBJtUtoQ7-_ZiMjlbPp_WhHL7UqBZWz1wdDc_DmdIYIDpk1iJKsgsHSDBYK_SzRqROvrt86cojNN36uC_5Bo4RkmtbsiXRAnAnVBOqQF92OgcGZDaGOgMVMFBIBi77L-9ts3dg_ZlK7-lsSK5gt_MsNjhM9tarzTLMYnpzladBipVV8fsHfzx_l6N98vZUWftsFPffMmbfs2PqQT0kRi5r1SCI5oiouuVraYyUOLrzHy0]--></g></svg>